<?xml version="1.0" standalone="no"?>
<!DOCTYPE svg PUBLIC "-//W3C//DTD SVG 20010904//EN"
 "http://www.w3.org/TR/2001/REC-SVG-20010904/DTD/svg10.dtd">
<svg version="1.0" xmlns="http://www.w3.org/2000/svg"
 width="150.000000pt" height="150.000000pt" viewBox="0 0 150.000000 150.000000"
 preserveAspectRatio="xMidYMid meet">
<metadata>
Created by potrace 1.11, written by Peter Selinger 2001-2013
</metadata>
<g transform="translate(0.000000,150.000000) scale(0.100000,-0.100000)"
fill="#000000" stroke="none">
<path d="M725 1333 c-183 -40 -344 -153 -427 -299 -18 -33 -32 -60 -31 -61 1
-2 -5 -19 -13 -39 -34 -80 -44 -186 -31 -314 l2 -25 -93 0 -92 0 0 -72 0 -73
55 0 55 0 0 -60 0 -60 101 0 101 0 63 -58 c57 -52 169 -120 188 -114 4 1 7 -3
7 -10 0 -6 3 -8 6 -5 4 3 14 2 24 -3 70 -37 328 -33 392 6 7 5 18 9 23 9 11 1
67 27 75 35 3 3 24 17 46 32 43 28 144 125 144 139 0 4 6 14 14 21 12 12 48
74 51 88 1 3 7 19 14 35 48 117 51 300 6 420 -14 39 -40 94 -58 123 -34 57
-129 162 -147 162 -5 0 -10 3 -10 8 0 11 -111 70 -177 93 -56 20 -236 34 -288
22z"/>
</g>
</svg>
